<?xml version="1.0" encoding="UTF-8" standalone="no"?><!DOCTYPE svg PUBLIC "-//W3C//DTD SVG 1.1//EN" "http://www.w3.org/Graphics/SVG/1.1/DTD/svg11.dtd"><svg width="100%" height="100%" viewBox="0 0 154 154" version="1.1" xmlns="http://www.w3.org/2000/svg" xmlns:xlink="http://www.w3.org/1999/xlink" xml:space="preserve" xmlns:serif="http://www.serif.com/" style="fill-rule:evenodd;clip-rule:evenodd;stroke-linejoin:round;stroke-miterlimit:1.41421;"><circle cx="77.706" cy="115.731" r="66.636" style="fill:#6769b3;"/><circle cx="77.706" cy="115.731" r="49.606" style="fill:#7f82f8;"/><path d="M39.893,21.287l9.008,0c2.761,0 5.022,1.705 6.783,5.115c0.297,1.038 0.445,2.002 0.445,2.891c0,1.391 -0.371,2.725 -1.112,4.004c0.741,1.297 1.112,2.706 1.112,4.226c0,3.391 -1.854,5.912 -5.56,7.561l-1.668,0.223l-9.008,0l0,-3.336l8.34,0c2.224,0 3.707,-1.261 4.449,-3.781l0,-1.112c0,-1.52 -0.779,-2.743 -2.336,-3.67c1.557,-1.149 2.336,-2.409 2.336,-3.781l0,-0.778c0,-1.724 -1.001,-3.058 -3.003,-4.004c-0.334,-0.148 -0.815,-0.222 -1.446,-0.222l-8.34,0l0,-3.336Zm0,4.114l8.34,0c1.872,0 3.096,1.075 3.67,3.225l0,1.001c0,1.279 -0.815,2.317 -2.446,3.114c-0.297,0.148 -0.705,0.222 -1.224,0.222l-8.34,0l0,-2.446l0,-1.335l0,-1.334l0,-2.447Zm0,8.341l8.896,0c1.316,0 2.354,1 3.114,3.002l0,0.89c0,1.668 -0.964,2.854 -2.891,3.558l-9.119,0l0,-2.224l0,-1.445l0,-1.557l0,-2.224Zm3.447,3.336l0,0.778l4.337,0c0.556,0 0.853,-0.111 0.89,-0.333l0,-0.112c-0.037,-0.222 -0.334,-0.333 -0.89,-0.333l-4.337,0Zm0,-8.341l0,0.779l4.337,0c0.556,0 0.853,-0.111 0.89,-0.334l0,-0.111c-0.037,-0.222 -0.334,-0.334 -0.89,-0.334l-4.337,0Z" style="fill:#c36;fill-rule:nonzero;"/><path d="M76.145,28.626l0,9.175c0,5.004 -2.502,7.506 -7.506,7.506l-3.336,0c-5.004,0 -7.506,-2.502 -7.506,-7.506l0,-9.175c0,-5.004 2.502,-7.506 7.506,-7.506l3.336,0c5.004,0 7.506,2.502 7.506,7.506Zm-4.17,0l0,9.175c0,2.224 -1.112,3.336 -3.336,3.336l-3.336,0c-2.224,0 -3.336,-1.112 -3.336,-3.336l0,-9.175c0,-2.224 1.112,-3.336 3.336,-3.336l3.336,0c2.224,0 3.336,1.112 3.336,3.336Zm0.834,0c0,-2.78 -1.39,-4.17 -4.17,-4.17l-3.336,0c-2.78,0 -4.17,1.39 -4.17,4.17l0,9.175c0,2.78 1.39,4.17 4.17,4.17l3.336,0c2.78,0 4.17,-1.39 4.17,-4.17l0,-9.175Zm-4.17,0.834c0,-0.556 -0.278,-0.834 -0.834,-0.834l-1.668,0c-0.556,0 -0.834,0.278 -0.834,0.834l0,7.507c0,0.556 0.278,0.834 0.834,0.834l1.668,0c0.556,0 0.834,-0.278 0.834,-0.834l0,-7.507Z" style="fill:#c36;fill-rule:nonzero;"/><path d="M77.814,21.12l0,3.336l19.182,0l0,-3.336l-19.182,0Zm0,4.17l0,3.336l5.838,0l0,16.681l3.336,0l0,-20.017l-9.174,0Zm10.008,20.017l3.336,0l0,-16.681l5.838,0l0,-3.336l-9.174,0l0,20.017Z" style="fill:#c36;fill-rule:nonzero;"/><path d="M98.664,29.043c0,-2.168 0.774,-4.031 2.322,-5.588c1.547,-1.557 3.275,-2.335 5.184,-2.335l10.843,0l0,3.336l-10.009,0c-1.538,0 -2.756,0.454 -3.655,1.362c-0.899,0.909 -1.349,1.983 -1.349,3.225c0,1.261 0.45,2.34 1.349,3.239c0.899,0.899 2.117,1.348 3.655,1.348l1.669,0c1.315,0 2.339,0.366 3.072,1.099c0.732,0.732 1.098,1.617 1.098,2.655c0,1.019 -0.366,1.899 -1.098,2.641c-0.733,0.741 -1.757,1.112 -3.072,1.112l-10.009,0l0,-3.336l10.009,0c0.556,0 0.834,-0.139 0.834,-0.417c0,-0.278 -0.278,-0.417 -0.834,-0.417l-2.503,0c-1.909,0 -3.637,-0.774 -5.184,-2.322c-1.548,-1.547 -2.322,-3.415 -2.322,-5.602Zm4.17,0c0,-1.019 0.366,-1.899 1.098,-2.641c0.733,-0.741 1.757,-1.112 3.072,-1.112l10.009,0l0,3.336l-10.009,0c-0.556,0 -0.834,0.139 -0.834,0.417c0,0.278 0.278,0.417 0.834,0.417l2.503,0c1.909,0 3.637,0.774 5.184,2.322c1.548,1.547 2.322,3.415 2.322,5.602c0,2.168 -0.774,4.031 -2.322,5.588c-1.547,1.556 -3.275,2.335 -5.184,2.335l-10.843,0l0,-3.336l10.009,0c1.538,0 2.756,-0.454 3.655,-1.363c0.899,-0.908 1.349,-1.983 1.349,-3.224c0,-1.261 -0.45,-2.34 -1.349,-3.239c-0.899,-0.899 -2.117,-1.349 -3.655,-1.349l-1.669,0c-1.315,0 -2.339,-0.366 -3.072,-1.098c-0.732,-0.732 -1.098,-1.617 -1.098,-2.655Z" style="fill:#c36;fill-rule:nonzero;"/><g><clipPath id="_clip1"><rect x="85.565" y="87.306" width="5.22" height="11.036" clip-rule="nonzero"/></clipPath><g clip-path="url(#_clip1)"><g><rect x="85.34" y="87.226" width="5.741" height="11.482" style="fill:#d84c79;"/><clipPath id="_clip2"><rect x="85.565" y="87.306" width="5.22" height="11.036" clip-rule="nonzero"/></clipPath><g clip-path="url(#_clip2)"><rect x="85.34" y="87.226" width="5.741" height="11.482" style="fill:#1e2564;"/></g><g><clipPath id="_clip3"><rect x="81.463" y="88.797" width="5.22" height="11.036" clip-rule="nonzero"/></clipPath><g clip-path="url(#_clip3)"><clipPath id="_clip4"><rect x="85.34" y="87.226" width="5.741" height="11.482" clip-rule="nonzero"/></clipPath><g clip-path="url(#_clip4)"><rect x="79.255" y="86.589" width="9.636" height="15.452" style="fill:#d84c79;"/></g></g></g></g></g></g><g><clipPath id="_clip5"><path d="M74.306,95.736c4.475,0.4 9.111,0.6 13.907,0.6c5.169,0 10.339,-0.232 15.509,-0.697c4.858,-0.437 9.151,3.147 9.588,8.005c0.03,0.328 0.041,0.657 0.033,0.986l-1.089,49.497c-0.102,4.648 -3.789,8.421 -8.433,8.63c-4.758,0.214 -9.712,0.321 -14.863,0.321c-5.015,0 -9.752,-0.102 -14.21,-0.305c-4.604,-0.209 -8.274,-3.925 -8.426,-8.532l-1.631,-49.416c-0.16,-4.876 3.661,-8.959 8.537,-9.119c0.359,-0.012 0.719,-0.002 1.078,0.03Z" clip-rule="nonzero"/></clipPath><g clip-path="url(#_clip5)"><g><rect x="64.142" y="95.176" width="49.462" height="68.01" style="fill:#d84c79;"/><clipPath id="_clip6"><path d="M74.306,95.363c4.475,0.4 9.111,0.6 13.907,0.6c5.169,0 10.339,-0.232 15.509,-0.697c4.858,-0.437 9.151,3.147 9.588,8.005c0.03,0.328 0.041,0.657 0.033,0.986l-1.089,49.498c-0.102,4.647 -3.789,8.42 -8.433,8.629c-4.758,0.214 -9.712,0.321 -14.863,0.321c-5.015,0 -9.752,-0.102 -14.21,-0.305c-4.604,-0.209 -8.274,-3.925 -8.426,-8.532l-1.631,-49.416c-0.16,-4.876 3.661,-8.958 8.537,-9.119c0.359,-0.012 0.719,-0.002 1.078,0.03Z" clip-rule="nonzero"/></clipPath><g clip-path="url(#_clip6)"><rect x="64.142" y="95.176" width="49.462" height="68.01" style="fill:#1e2564;"/></g><g><clipPath id="_clip7"><path d="M67.221,93.499c4.476,0.4 9.112,0.6 13.907,0.6c5.17,0 10.34,-0.232 15.509,-0.698c4.859,-0.437 9.152,3.148 9.589,8.006c0.029,0.328 0.04,0.657 0.033,0.986l-1.089,49.497c-0.102,4.648 -3.789,8.421 -8.433,8.629c-4.759,0.214 -9.713,0.321 -14.863,0.321c-5.015,0 -9.752,-0.101 -14.21,-0.304c-4.605,-0.21 -8.274,-3.925 -8.426,-8.532l-1.631,-49.417c-0.161,-4.875 3.661,-8.958 8.537,-9.119c0.359,-0.011 0.719,-0.001 1.077,0.031Z" clip-rule="nonzero"/></clipPath><g clip-path="url(#_clip7)"><clipPath id="_clip8"><rect x="64.142" y="95.176" width="49.462" height="68.01" clip-rule="nonzero"/></clipPath><g clip-path="url(#_clip8)"><rect x="55.394" y="91.157" width="53.075" height="71.891" style="fill:#d84c79;"/></g></g></g><g><clipPath id="_clip9"><path d="M67.221,93.499c4.476,0.4 9.112,0.6 13.907,0.6c5.17,0 10.34,-0.232 15.509,-0.698c4.859,-0.437 9.152,3.148 9.589,8.006c0.029,0.328 0.04,0.657 0.033,0.986l-1.089,49.497c-0.102,4.648 -3.789,8.421 -8.433,8.629c-4.759,0.214 -9.713,0.321 -14.863,0.321c-5.015,0 -9.752,-0.101 -14.21,-0.304c-4.605,-0.21 -8.274,-3.925 -8.426,-8.532l-1.631,-49.417c-0.161,-4.875 3.661,-8.958 8.537,-9.119c0.359,-0.011 0.719,-0.001 1.077,0.031Z" clip-rule="nonzero"/></clipPath><g clip-path="url(#_clip9)"><g><rect x="64.142" y="95.176" width="42.396" height="65.802" style="fill:#d84c79;"/><clipPath id="_clip10"><path d="M67.221,93.499c4.476,0.4 9.112,0.6 13.907,0.6c5.17,0 10.34,-0.232 15.509,-0.698c4.859,-0.437 9.152,3.148 9.589,8.006c0.029,0.328 0.04,0.657 0.033,0.986l-1.089,49.497c-0.102,4.648 -3.789,8.421 -8.433,8.629c-4.759,0.214 -9.713,0.321 -14.863,0.321c-5.015,0 -9.752,-0.101 -14.21,-0.304c-4.605,-0.21 -8.274,-3.925 -8.426,-8.532l-1.631,-49.417c-0.161,-4.875 3.661,-8.958 8.537,-9.119c0.359,-0.011 0.719,-0.001 1.077,0.031Z" clip-rule="nonzero"/></clipPath><g clip-path="url(#_clip10)"><rect x="64.142" y="95.176" width="42.396" height="65.802" style="fill:#ff80a8;"/></g><clipPath id="_clip11"><path d="M73.453,96.452c4.621,0.171 9.415,0.257 14.381,0.257c8.451,0 15.413,-3.853 20.886,-11.559l2.651,69.213c0.186,4.858 -3.588,8.953 -8.444,9.162c-4.599,0.199 -9.379,0.298 -14.341,0.298c-5.017,0 -9.755,-0.101 -14.214,-0.304c-4.603,-0.21 -8.272,-3.923 -8.425,-8.529l-1.649,-49.418c-0.163,-4.875 3.657,-8.959 8.533,-9.122c0.207,-0.007 0.415,-0.006 0.622,0.002Z" clip-rule="nonzero"/></clipPath><g clip-path="url(#_clip11)"><rect x="64.142" y="95.176" width="42.396" height="65.802" style="fill:#d84c79;"/></g></g></g></g></g></g></g><g><clipPath id="_clip12"><path d="M60.695,102.685c-0.778,-0.248 -1.565,-0.49 -1.565,-1.082c0,-2.883 2.337,-5.22 5.22,-5.22c2.883,0 5.22,2.337 5.22,5.22c0,2.883 -2.337,5.22 -5.22,5.22c-0.307,0 -0.548,-0.055 -0.74,-0.153l-7.479,20.546l14.566,-10.199l2.352,3.36l-15.429,10.804c0.025,0.194 0.039,0.392 0.039,0.592c0,2.472 -2.004,4.475 -4.475,4.475c-2.471,0 -4.474,-2.003 -4.474,-4.475c0,-1.926 1.218,-3.569 2.926,-4.199l9.059,-24.889Z" clip-rule="nonzero"/></clipPath><g clip-path="url(#_clip12)"><g><rect x="48.686" y="96.059" width="24.731" height="40.629" style="fill:#d84c79;"/><clipPath id="_clip13"><path d="M60.695,102.685c-0.778,-0.248 -1.565,-0.49 -1.565,-1.082c0,-2.883 2.337,-5.22 5.22,-5.22c2.883,0 5.22,2.337 5.22,5.22c0,2.883 -2.337,5.22 -5.22,5.22c-0.307,0 -0.548,-0.055 -0.74,-0.153l-7.479,20.546l14.566,-10.199l2.352,3.36l-15.429,10.804c0.025,0.194 0.039,0.392 0.039,0.592c0,2.472 -2.004,4.475 -4.475,4.475c-2.471,0 -4.474,-2.003 -4.474,-4.475c0,-1.926 1.218,-3.569 2.926,-4.199l9.059,-24.889Z" clip-rule="nonzero"/></clipPath><g clip-path="url(#_clip13)"><rect x="48.686" y="96.059" width="24.731" height="40.629" style="fill:#1e2564;"/></g><g><clipPath id="_clip14"><path d="M58.969,102.773c-0.787,-0.834 -1.27,-1.959 -1.27,-3.197c0,-2.574 2.087,-4.661 4.661,-4.661c2.574,0 4.661,2.087 4.661,4.661c0,2.423 -1.849,4.414 -4.212,4.639l-8.943,24.571l15.072,-10.553l1.501,2.144l-15.504,10.856c0.311,0.61 0.487,1.3 0.487,2.032c0,2.471 -2.004,4.474 -4.475,4.474c-2.471,0 -4.474,-2.003 -4.474,-4.474c0,-1.927 1.218,-3.569 2.926,-4.199l9.57,-26.293Z" clip-rule="nonzero"/></clipPath><g clip-path="url(#_clip14)"><clipPath id="_clip15"><rect x="48.686" y="96.059" width="24.731" height="40.629" clip-rule="nonzero"/></clipPath><g clip-path="url(#_clip15)"><rect x="44.265" y="92.707" width="28.382" height="47.24" style="fill:#d84c79;"/></g></g></g><g><clipPath id="_clip16"><path d="M62.36,104.237c2.574,0 4.661,-2.087 4.661,-4.661c0,-2.574 -2.087,-4.661 -4.661,-4.661c-2.574,0 -4.661,2.087 -4.661,4.661c0,2.574 2.087,4.661 4.661,4.661Z" clip-rule="nonzero"/></clipPath><g clip-path="url(#_clip16)"><g><rect x="57.518" y="96.059" width="9.716" height="8.391" style="fill:#d84c79;"/><clipPath id="_clip17"><path d="M62.36,104.237c2.574,0 4.661,-2.087 4.661,-4.661c0,-2.574 -2.087,-4.661 -4.661,-4.661c-2.574,0 -4.661,2.087 -4.661,4.661c0,2.574 2.087,4.661 4.661,4.661Z" clip-rule="nonzero"/></clipPath><g clip-path="url(#_clip17)"><rect x="57.518" y="96.059" width="9.716" height="8.391" style="fill:#ff80a8;"/></g><g><clipPath id="_clip18"><path d="M64.597,106.474c2.574,0 4.661,-2.087 4.661,-4.661c0,-2.574 -2.087,-4.661 -4.661,-4.661c-2.574,0 -4.661,2.087 -4.661,4.661c0,2.574 2.087,4.661 4.661,4.661Z" clip-rule="nonzero"/></clipPath><g clip-path="url(#_clip18)"><clipPath id="_clip19"><rect x="57.518" y="96.059" width="9.716" height="8.391" clip-rule="nonzero"/></clipPath><g clip-path="url(#_clip19)"><rect x="57.728" y="94.944" width="13.738" height="13.738" style="fill:#d84c79;"/></g></g></g></g></g></g></g></g></g><g><clipPath id="_clip20"><rect x="73.049" y="112.793" width="7.943" height="4.225" clip-rule="nonzero"/></clipPath><g clip-path="url(#_clip20)"><g><rect x="72.975" y="112.399" width="8.391" height="4.858" style="fill:#d84c79;"/><clipPath id="_clip21"><rect x="73.049" y="112.793" width="7.943" height="4.225" clip-rule="nonzero"/></clipPath><g clip-path="url(#_clip21)"><rect x="72.975" y="112.399" width="8.391" height="4.858" style="fill:#1e2564;"/></g><g><clipPath id="_clip22"><rect x="70.812" y="113.165" width="7.943" height="3.106" clip-rule="nonzero"/></clipPath><g clip-path="url(#_clip22)"><clipPath id="_clip23"><rect x="72.975" y="112.399" width="8.391" height="4.858" clip-rule="nonzero"/></clipPath><g clip-path="url(#_clip23)"><rect x="68.604" y="110.957" width="12.36" height="7.522" style="fill:#d84c79;"/></g></g></g></g></g></g><g><clipPath id="_clip24"><rect x="67.668" y="110.621" width="9.751" height="17.747" clip-rule="nonzero"/></clipPath><g clip-path="url(#_clip24)"><g><rect x="67.234" y="110.191" width="10.599" height="18.548" style="fill:#d84c79;"/><clipPath id="_clip25"><rect x="67.668" y="110.621" width="9.751" height="17.747" clip-rule="nonzero"/></clipPath><g clip-path="url(#_clip25)"><rect x="67.234" y="110.191" width="10.599" height="18.548" style="fill:#1e2564;"/></g><g><clipPath id="_clip26"><rect x="66.176" y="109.502" width="9.751" height="17.747" clip-rule="nonzero"/></clipPath><g clip-path="url(#_clip26)"><rect x="67.234" y="110.191" width="10.599" height="18.548" style="fill:#d84c79;"/><g><clipPath id="_clip27"><rect x="66.176" y="109.502" width="9.751" height="17.747" clip-rule="nonzero"/></clipPath><g clip-path="url(#_clip27)"><g><rect x="67.234" y="110.191" width="8.832" height="17.223" style="fill:#d84c79;"/><clipPath id="_clip28"><rect x="66.176" y="109.502" width="9.751" height="17.747" clip-rule="nonzero"/></clipPath><g clip-path="url(#_clip28)"><rect x="67.234" y="110.191" width="8.832" height="17.223" style="fill:#ff80a8;"/></g><clipPath id="_clip29"><rect x="68.041" y="110.994" width="9.751" height="17.747" clip-rule="nonzero"/></clipPath><g clip-path="url(#_clip29)"><rect x="67.234" y="110.191" width="8.832" height="17.223" style="fill:#d84c79;"/></g></g></g></g></g></g></g></g></g><g><clipPath id="_clip30"><rect x="70.515" y="109.83" width="4.622" height="5.57" clip-rule="nonzero"/></clipPath><g clip-path="url(#_clip30)"><g><rect x="70.325" y="109.749" width="4.858" height="5.741" style="fill:#d84c79;"/><g><clipPath id="_clip31"><rect x="70.515" y="109.83" width="4.622" height="5.57" clip-rule="nonzero"/></clipPath><g clip-path="url(#_clip31)"><rect x="70.325" y="109.749" width="4.858" height="5.741" style="fill:#1e2564;"/><clipPath id="_clip32"><rect x="70.515" y="109.83" width="3.782" height="4.587" clip-rule="nonzero"/></clipPath><g clip-path="url(#_clip32)"><rect x="70.325" y="109.749" width="4.858" height="5.741" style="fill:#d84c79;"/></g><g><clipPath id="_clip33"><rect x="70.515" y="109.83" width="3.782" height="4.587" clip-rule="nonzero"/></clipPath><g clip-path="url(#_clip33)"><g><rect x="70.325" y="109.749" width="3.975" height="4.858" style="fill:#d84c79;"/><clipPath id="_clip34"><rect x="70.515" y="109.83" width="3.782" height="4.587" clip-rule="nonzero"/></clipPath><g clip-path="url(#_clip34)"><rect x="70.325" y="109.749" width="3.975" height="4.858" style="fill:#ff80a8;"/></g><clipPath id="_clip35"><rect x="70.935" y="110.321" width="3.782" height="4.587" clip-rule="nonzero"/></clipPath><g clip-path="url(#_clip35)"><rect x="70.325" y="109.749" width="3.975" height="4.858" style="fill:#d84c79;"/></g></g></g></g></g></g></g></g></g><g><clipPath id="_clip36"><rect x="70.492" y="117.382" width="9.751" height="4.225" clip-rule="nonzero"/></clipPath><g clip-path="url(#_clip36)"><g><rect x="70.325" y="117.257" width="10.157" height="4.416" style="fill:#d84c79;"/><clipPath id="_clip37"><rect x="70.492" y="117.382" width="9.751" height="4.225" clip-rule="nonzero"/></clipPath><g clip-path="url(#_clip37)"><rect x="70.325" y="117.257" width="10.157" height="4.416" style="fill:#1e2564;"/></g><clipPath id="_clip38"><rect x="69.374" y="116.263" width="9.751" height="4.225" clip-rule="nonzero"/></clipPath><g clip-path="url(#_clip38)"><rect x="70.325" y="117.257" width="10.157" height="4.416" style="fill:#d84c79;"/></g></g></g></g><g><clipPath id="_clip39"><rect x="70.492" y="122.654" width="9.751" height="4.225" clip-rule="nonzero"/></clipPath><g clip-path="url(#_clip39)"><g><rect x="70.325" y="122.556" width="10.157" height="4.416" style="fill:#d84c79;"/><clipPath id="_clip40"><rect x="70.492" y="122.654" width="9.751" height="4.225" clip-rule="nonzero"/></clipPath><g clip-path="url(#_clip40)"><rect x="70.325" y="122.556" width="10.157" height="4.416" style="fill:#1e2564;"/></g><clipPath id="_clip41"><rect x="69.374" y="121.536" width="9.751" height="4.225" clip-rule="nonzero"/></clipPath><g clip-path="url(#_clip41)"><rect x="70.325" y="122.556" width="10.157" height="4.416" style="fill:#d84c79;"/></g></g></g></g><g><clipPath id="_clip42"><path d="M113.914,106.297l7.814,21.47c-1.128,0.812 -1.863,2.137 -1.863,3.634c0,0.777 0.198,1.509 0.548,2.146l-9.637,14.286l3.401,2.294l9.633,-14.283c0.174,0.02 0.35,0.031 0.529,0.031c2.471,0 4.475,-2.003 4.475,-4.474c0,-1.927 -1.219,-3.57 -2.927,-4.2l-9.059,-24.889c0.779,-0.247 1.566,-0.49 1.566,-1.082c0,-2.883 -2.337,-5.22 -5.22,-5.22c-2.883,0 -5.22,2.337 -5.22,5.22c0,2.883 2.337,5.22 5.22,5.22c0.307,0 0.547,-0.055 0.74,-0.153Z" clip-rule="nonzero"/></clipPath><g clip-path="url(#_clip42)"><g><rect x="107.863" y="95.617" width="21.198" height="54.761" style="fill:#5e4d52;"/><clipPath id="_clip43"><path d="M113.914,106.297l7.814,21.47c-1.128,0.812 -1.863,2.137 -1.863,3.634c0,0.777 0.198,1.509 0.548,2.146l-9.637,14.286l3.401,2.294l9.633,-14.283c0.174,0.02 0.35,0.031 0.529,0.031c2.471,0 4.475,-2.003 4.475,-4.474c0,-1.927 -1.219,-3.57 -2.927,-4.2l-9.059,-24.889c0.779,-0.247 1.566,-0.49 1.566,-1.082c0,-2.883 -2.337,-5.22 -5.22,-5.22c-2.883,0 -5.22,2.337 -5.22,5.22c0,2.883 2.337,5.22 5.22,5.22c0.307,0 0.547,-0.055 0.74,-0.153Z" clip-rule="nonzero"/></clipPath><g clip-path="url(#_clip43)"><rect x="107.863" y="95.617" width="21.198" height="54.761" style="fill:#1e2564;"/></g><g><clipPath id="_clip44"><path d="M111.677,104.433l7.814,21.469c-1.128,0.813 -1.863,2.138 -1.863,3.634c0,0.778 0.198,1.51 0.547,2.147l-9.636,14.286l3.401,2.293l9.633,-14.282c0.174,0.02 0.35,0.031 0.529,0.031c2.471,0 4.474,-2.004 4.474,-4.475c0,-1.927 -1.218,-3.569 -2.926,-4.199l-9.059,-24.889c0.779,-0.248 1.566,-0.49 1.566,-1.082c0,-2.883 -2.337,-5.22 -5.22,-5.22c-2.883,0 -5.22,2.337 -5.22,5.22c0,2.883 2.337,5.22 5.22,5.22c0.307,0 0.547,-0.055 0.74,-0.153Z" clip-rule="nonzero"/></clipPath><g clip-path="url(#_clip44)"><clipPath id="_clip45"><rect x="107.863" y="95.617" width="21.198" height="54.761" clip-rule="nonzero"/></clipPath><g clip-path="url(#_clip45)"><rect x="103.509" y="91.938" width="25.276" height="58.533" style="fill:#d84c79;"/></g></g></g></g></g></g><g><clipPath id="_clip46"><path d="M97.408,156.494l6.115,-7.035l2.252,1.957l-6.116,7.035l-2.251,-1.957Z" clip-rule="nonzero"/></clipPath><g clip-path="url(#_clip46)"><g><g><clipPath id="_clip47"><rect x="97.264" y="149.054" width="8.832" height="9.716" clip-rule="nonzero"/></clipPath><g clip-path="url(#_clip47)"><path d="M108.89,151.198l-9.013,10.368l-5.584,-4.854l9.013,-10.368l5.584,4.854Z" style="fill:#d84c79;"/><g><clipPath id="_clip48"><path d="M97.408,156.494l6.115,-7.035l2.252,1.957l-6.116,7.035l-2.251,-1.957Z" clip-rule="nonzero"/></clipPath><g clip-path="url(#_clip48)"><clipPath id="_clip49"><path d="M97.264,158.769l8.832,0l0,-9.715l-8.832,0l0,9.715Z" clip-rule="nonzero"/></clipPath><g clip-path="url(#_clip49)"><path d="M108.89,151.198l-9.013,10.368l-5.584,-4.854l9.013,-10.368l5.584,4.854Z" style="fill:#1e2564;"/></g></g></g><g><clipPath id="_clip50"><path d="M97.405,155.983l2.571,-2.957l2.015,1.753l-2.57,2.956l-2.016,-1.752Z" clip-rule="nonzero"/></clipPath><g clip-path="url(#_clip50)"><clipPath id="_clip51"><path d="M97.264,158.769l8.832,0l0,-9.715l-8.832,0l0,9.715Z" clip-rule="nonzero"/></clipPath><g clip-path="url(#_clip51)"><path d="M105.107,154.561l-5.468,6.29l-5.349,-4.65l5.468,-6.29l5.349,4.65Z" style="fill:#d84c79;"/></g></g></g></g></g></g></g></g><g><clipPath id="_clip52"><path d="M101.318,157.808l6.116,-7.035l2.251,1.957l-6.116,7.035l-2.251,-1.957Z" clip-rule="nonzero"/></clipPath><g clip-path="url(#_clip52)"><g><g><clipPath id="_clip53"><rect x="101.239" y="150.378" width="8.832" height="9.716" clip-rule="nonzero"/></clipPath><g clip-path="url(#_clip53)"><path d="M112.8,152.512l-9.013,10.368l-5.584,-4.854l9.013,-10.368l5.584,4.854Z" style="fill:#d84c79;"/><g><clipPath id="_clip54"><path d="M101.318,157.808l6.116,-7.035l2.251,1.957l-6.116,7.035l-2.251,-1.957Z" clip-rule="nonzero"/></clipPath><g clip-path="url(#_clip54)"><clipPath id="_clip55"><path d="M101.239,160.094l8.832,0l0,-9.716l-8.832,0l0,9.716Z" clip-rule="nonzero"/></clipPath><g clip-path="url(#_clip55)"><path d="M112.8,152.512l-9.013,10.368l-5.584,-4.854l9.013,-10.368l5.584,4.854Z" style="fill:#1e2564;"/></g></g></g><g><clipPath id="_clip56"><path d="M101.289,157.362l1.578,-1.816l1.907,1.658l-1.577,1.815l-1.908,-1.657Z" clip-rule="nonzero"/></clipPath><g clip-path="url(#_clip56)"><clipPath id="_clip57"><path d="M101.239,160.094l8.832,0l0,-9.716l-8.832,0l0,9.716Z" clip-rule="nonzero"/></clipPath><g clip-path="url(#_clip57)"><path d="M107.89,156.986l-4.476,5.149l-5.24,-4.556l4.475,-5.148l5.241,4.555Z" style="fill:#d84c79;"/></g></g></g></g></g></g></g></g><g><clipPath id="_clip58"><path d="M105.775,159.808l6.115,-7.035l2.251,1.957l-6.115,7.035l-2.251,-1.957Z" clip-rule="nonzero"/></clipPath><g clip-path="url(#_clip58)"><g><g><clipPath id="_clip59"><rect x="105.655" y="152.587" width="8.832" height="9.274" clip-rule="nonzero"/></clipPath><g clip-path="url(#_clip59)"><path d="M117.256,154.512l-9.012,10.368l-5.585,-4.854l9.013,-10.368l5.584,4.854Z" style="fill:#d84c79;"/><g><clipPath id="_clip60"><path d="M105.775,159.808l6.115,-7.035l2.251,1.957l-6.115,7.035l-2.251,-1.957Z" clip-rule="nonzero"/></clipPath><g clip-path="url(#_clip60)"><clipPath id="_clip61"><path d="M105.655,161.861l8.832,0l0,-9.274l-8.832,0l0,9.274Z" clip-rule="nonzero"/></clipPath><g clip-path="url(#_clip61)"><path d="M117.256,154.512l-9.012,10.368l-5.585,-4.854l9.013,-10.368l5.584,4.854Z" style="fill:#1e2564;"/></g></g></g></g></g></g></g></g><g><clipPath id="_clip62"><path d="M99.813,152.47l9.051,-10.412l10.693,9.296l-9.051,10.411l-10.693,-9.295Z" clip-rule="nonzero"/></clipPath><g clip-path="url(#_clip62)"><g><g><clipPath id="_clip63"><rect x="99.472" y="141.988" width="20.315" height="19.873" clip-rule="nonzero"/></clipPath><g clip-path="url(#_clip63)"><path d="M122.672,151.136l-11.948,13.744l-14.026,-12.192l11.948,-13.745l14.026,12.193Z" style="fill:#d84c79;"/><g><clipPath id="_clip64"><path d="M99.813,152.47l9.051,-10.412l10.693,9.296l-9.051,10.411l-10.693,-9.295Z" clip-rule="nonzero"/></clipPath><g clip-path="url(#_clip64)"><clipPath id="_clip65"><path d="M99.472,161.861l20.315,0l0,-19.873l-20.315,0l0,19.873Z" clip-rule="nonzero"/></clipPath><g clip-path="url(#_clip65)"><path d="M122.672,151.136l-11.948,13.744l-14.026,-12.192l11.948,-13.745l14.026,12.193Z" style="fill:#1e2564;"/></g></g></g><g><clipPath id="_clip66"><path d="M97.576,152.097l9.051,-10.412l10.693,9.296l-9.051,10.411l-10.693,-9.295Z" clip-rule="nonzero"/></clipPath><g clip-path="url(#_clip66)"><clipPath id="_clip67"><path d="M99.472,161.861l20.315,0l0,-19.873l-20.315,0l0,19.873Z" clip-rule="nonzero"/></clipPath><g clip-path="url(#_clip67)"><path d="M120.435,150.763l-11.948,13.745l-14.026,-12.193l11.948,-13.745l14.026,12.193Z" style="fill:#d84c79;"/></g></g></g></g></g></g></g></g><g><clipPath id="_clip68"><path d="M100.315,147.502l6.116,-7.035l2.251,1.957l-6.115,7.035l-2.252,-1.957Z" clip-rule="nonzero"/></clipPath><g clip-path="url(#_clip68)"><g><g><clipPath id="_clip69"><rect x="99.914" y="140.221" width="8.832" height="9.274" clip-rule="nonzero"/></clipPath><g clip-path="url(#_clip69)"><path d="M111.797,142.206l-9.013,10.368l-5.584,-4.854l9.013,-10.368l5.584,4.854Z" style="fill:#d84c79;"/><g><clipPath id="_clip70"><path d="M100.315,147.502l6.116,-7.035l2.251,1.957l-6.115,7.035l-2.252,-1.957Z" clip-rule="nonzero"/></clipPath><g clip-path="url(#_clip70)"><clipPath id="_clip71"><path d="M99.914,149.495l8.832,0l0,-9.274l-8.832,0l0,9.274Z" clip-rule="nonzero"/></clipPath><g clip-path="url(#_clip71)"><path d="M111.797,142.206l-9.013,10.368l-5.584,-4.854l9.013,-10.368l5.584,4.854Z" style="fill:#1e2564;"/></g></g></g><g><clipPath id="_clip72"><path d="M100.315,146.757l5.006,-5.759l2.252,1.957l-5.006,5.758l-2.252,-1.956Z" clip-rule="nonzero"/></clipPath><g clip-path="url(#_clip72)"><clipPath id="_clip73"><path d="M99.914,149.495l8.832,0l0,-9.274l-8.832,0l0,9.274Z" clip-rule="nonzero"/></clipPath><g clip-path="url(#_clip73)"><path d="M110.688,142.737l-7.904,9.092l-5.584,-4.855l7.904,-9.091l5.584,4.854Z" style="fill:#d84c79;"/></g></g></g><g><clipPath id="_clip74"><path d="M100.315,146.757l5.006,-5.759l2.252,1.957l-5.006,5.758l-2.252,-1.956Z" clip-rule="nonzero"/></clipPath><g clip-path="url(#_clip74)"><g><g><clipPath id="_clip75"><rect x="99.914" y="140.663" width="7.949" height="8.391" clip-rule="nonzero"/></clipPath><g clip-path="url(#_clip75)"><path d="M110.688,142.737l-7.904,9.092l-5.584,-4.855l7.904,-9.091l5.584,4.854Z" style="fill:#d84c79;"/><g><clipPath id="_clip76"><path d="M100.315,146.757l5.006,-5.759l2.252,1.957l-5.006,5.758l-2.252,-1.956Z" clip-rule="nonzero"/></clipPath><g clip-path="url(#_clip76)"><clipPath id="_clip77"><path d="M99.914,149.054l7.949,0l0,-8.391l-7.949,0l0,8.391Z" clip-rule="nonzero"/></clipPath><g clip-path="url(#_clip77)"><path d="M110.688,142.737l-7.904,9.092l-5.584,-4.855l7.904,-9.091l5.584,4.854Z" style="fill:#ff80a8;"/></g></g></g><g><clipPath id="_clip78"><path d="M100.853,147.062l5.006,-5.759l2.251,1.957l-5.006,5.759l-2.251,-1.957Z" clip-rule="nonzero"/></clipPath><g clip-path="url(#_clip78)"><clipPath id="_clip79"><path d="M99.914,149.054l7.949,0l0,-8.391l-7.949,0l0,8.391Z" clip-rule="nonzero"/></clipPath><g clip-path="url(#_clip79)"><path d="M111.225,143.042l-7.903,9.092l-5.584,-4.854l7.903,-9.092l5.584,4.854Z" style="fill:#d84c79;"/></g></g></g></g></g></g></g></g></g></g></g></g></g><g><clipPath id="_clip80"><path d="M84.297,41.675c6.892,-2.416 14.545,-1.066 20.195,3.561c5.62,4.602 8.318,11.878 7.056,19.031l-4.41,25.012c-0.424,2.402 -2.714,4.006 -5.116,3.582l-31.693,-5.588c-2.402,-0.423 -4.006,-2.714 -3.582,-5.116l4.41,-25.012c1.261,-7.153 6.285,-13.068 13.14,-15.47Z" clip-rule="nonzero"/></clipPath><g clip-path="url(#_clip80)"><g><g><clipPath id="_clip81"><rect x="65.909" y="40.415" width="47.254" height="52.995" clip-rule="nonzero"/></clipPath><g clip-path="url(#_clip81)"><path d="M108.162,96.186l-44.74,-7.889l9.451,-53.601l44.741,7.888l-9.452,53.602Z" style="fill:#d84c79;"/><g><clipPath id="_clip82"><path d="M84.297,41.675c6.892,-2.416 14.545,-1.066 20.195,3.561c5.62,4.602 8.318,11.878 7.056,19.031l-4.41,25.012c-0.424,2.402 -2.714,4.006 -5.116,3.582l-31.693,-5.588c-2.402,-0.423 -4.006,-2.714 -3.582,-5.116l4.41,-25.012c1.261,-7.153 6.285,-13.068 13.14,-15.47Z" clip-rule="nonzero"/></clipPath><g clip-path="url(#_clip82)"><clipPath id="_clip83"><path d="M65.909,93.409l47.253,0l0,-52.994l-47.253,0l0,52.994Z" clip-rule="nonzero"/></clipPath><g clip-path="url(#_clip83)"><path d="M108.162,96.186l-44.74,-7.889l9.451,-53.601l44.741,7.888l-9.452,53.602Z" style="fill:#ff80a8;"/></g></g></g><g><clipPath id="_clip84"><path d="M84.297,41.675c6.892,-2.416 14.545,-1.066 20.195,3.561c5.62,4.602 8.318,11.878 7.056,19.031l-4.41,25.012c-0.424,2.402 -2.714,4.006 -5.116,3.582l-31.693,-5.588c-2.402,-0.423 -4.006,-2.714 -3.582,-5.116l4.41,-25.012c1.261,-7.153 6.285,-13.068 13.14,-15.47Z" clip-rule="nonzero"/></clipPath><g clip-path="url(#_clip84)"><clipPath id="_clip85"><path d="M65.909,93.409l47.253,0l0,-52.994l-47.253,0l0,52.994Z" clip-rule="nonzero"/></clipPath><g clip-path="url(#_clip85)"><path d="M108.162,96.186l-44.74,-7.889l9.451,-53.601l44.741,7.888l-9.452,53.602Z" style="fill:#1e2564;"/></g></g></g><g><clipPath id="_clip86"><path d="M81.54,42.048c6.892,-2.416 14.545,-1.066 20.196,3.561c5.619,4.602 8.317,11.878 7.056,19.031l-4.411,25.012c-0.423,2.402 -2.714,4.006 -5.116,3.582l-31.692,-5.588c-2.402,-0.424 -4.006,-2.714 -3.583,-5.116l4.411,-25.012c1.261,-7.153 6.285,-13.068 13.139,-15.47Z" clip-rule="nonzero"/></clipPath><g clip-path="url(#_clip86)"><clipPath id="_clip87"><path d="M65.909,93.409l47.253,0l0,-52.994l-47.253,0l0,52.994Z" clip-rule="nonzero"/></clipPath><g clip-path="url(#_clip87)"><path d="M105.406,96.559l-44.741,-7.889l9.452,-53.602l44.74,7.889l-9.451,53.602Z" style="fill:#d84c79;"/></g></g></g><g><clipPath id="_clip88"><path d="M81.54,42.048c6.892,-2.416 14.545,-1.066 20.196,3.561c5.619,4.602 8.317,11.878 7.056,19.031l-4.411,25.012c-0.423,2.402 -2.714,4.006 -5.116,3.582l-31.692,-5.588c-2.402,-0.424 -4.006,-2.714 -3.583,-5.116l4.411,-25.012c1.261,-7.153 6.285,-13.068 13.139,-15.47Z" clip-rule="nonzero"/></clipPath><g clip-path="url(#_clip88)"><g><g><clipPath id="_clip89"><rect x="65.909" y="40.415" width="44.162" height="52.995" clip-rule="nonzero"/></clipPath><g clip-path="url(#_clip89)"><path d="M105.406,96.559l-44.741,-7.889l9.452,-53.602l44.74,7.889l-9.451,53.602Z" style="fill:#d84c79;"/><g><clipPath id="_clip90"><path d="M81.54,42.048c6.892,-2.416 14.545,-1.066 20.196,3.561c5.619,4.602 8.317,11.878 7.056,19.031l-4.411,25.012c-0.423,2.402 -2.714,4.006 -5.116,3.582l-31.692,-5.588c-2.402,-0.424 -4.006,-2.714 -3.583,-5.116l4.411,-25.012c1.261,-7.153 6.285,-13.068 13.139,-15.47Z" clip-rule="nonzero"/></clipPath><g clip-path="url(#_clip90)"><clipPath id="_clip91"><path d="M65.909,93.409l44.162,0l0,-52.994l-44.162,0l0,52.994Z" clip-rule="nonzero"/></clipPath><g clip-path="url(#_clip91)"><path d="M105.406,96.559l-44.741,-7.889l9.452,-53.602l44.74,7.889l-9.451,53.602Z" style="fill:#ff80a8;"/></g></g></g><g><clipPath id="_clip92"><path d="M84.896,42.421c6.892,-2.416 14.545,-1.066 20.195,3.561c5.62,4.601 8.318,11.878 7.056,19.031l-4.41,25.012c-0.423,2.402 -2.714,4.006 -5.116,3.582l-31.693,-5.588c-2.402,-0.424 -4.006,-2.714 -3.582,-5.116l4.41,-25.012c1.262,-7.153 6.285,-13.068 13.14,-15.47Z" clip-rule="nonzero"/></clipPath><g clip-path="url(#_clip92)"><clipPath id="_clip93"><path d="M65.909,93.409l44.162,0l0,-52.994l-44.162,0l0,52.994Z" clip-rule="nonzero"/></clipPath><g clip-path="url(#_clip93)"><path d="M108.761,96.932l-44.74,-7.889l9.452,-53.602l44.74,7.889l-9.452,53.602Z" style="fill:#d84c79;"/></g></g></g></g></g></g></g></g></g></g></g></g></g><g><clipPath id="_clip94"><path d="M88.958,78.332c6.487,0 11.745,-5.259 11.745,-11.745c0,-6.487 -5.258,-11.745 -11.745,-11.745c-6.486,0 -11.745,5.258 -11.745,11.745c0,6.486 5.259,11.745 11.745,11.745Z" clip-rule="nonzero"/></clipPath><g clip-path="url(#_clip94)"><g><rect x="76.949" y="54.546" width="23.848" height="23.848" style="fill:#1e2564;"/><clipPath id="_clip95"><path d="M88.958,78.332c6.487,0 11.745,-5.259 11.745,-11.745c0,-6.487 -5.258,-11.745 -11.745,-11.745c-6.486,0 -11.745,5.258 -11.745,11.745c0,6.486 5.259,11.745 11.745,11.745Z" clip-rule="nonzero"/></clipPath><g clip-path="url(#_clip95)"><rect x="76.949" y="54.546" width="23.848" height="23.848" style="fill:#1e2564;"/></g><clipPath id="_clip96"><path d="M90.077,78.705c6.487,0 11.745,-5.259 11.745,-11.745c0,-6.487 -5.258,-11.745 -11.745,-11.745c-6.487,0 -11.745,5.258 -11.745,11.745c0,6.486 5.258,11.745 11.745,11.745Z" clip-rule="nonzero"/></clipPath><g clip-path="url(#_clip96)"><rect x="76.949" y="54.546" width="23.848" height="23.848" style="fill:#ff80a8;"/></g><g><clipPath id="_clip97"><path d="M92.832,80.942c7.184,0 13.009,-5.824 13.009,-13.009c0,-7.184 -5.825,-13.009 -13.009,-13.009c-7.184,0 -13.009,5.825 -13.009,13.009c0,7.185 5.825,13.009 13.009,13.009Z" clip-rule="nonzero"/></clipPath><g clip-path="url(#_clip97)"><clipPath id="_clip98"><rect x="76.949" y="54.546" width="23.848" height="23.848" clip-rule="nonzero"/></clipPath><g clip-path="url(#_clip98)"><rect x="77.615" y="52.716" width="30.433" height="30.433" style="fill:#1e2564;"/></g></g></g></g></g></g></svg>